<svg width="100%" height="100%" viewBox="0 0 79 24" fill="none" xmlns="http://www.w3.org/2000/svg">
<path fill-rule="evenodd" clip-rule="evenodd" d="M23.0086 9.62015V11.3825H26.6099L23.0086 15.5378V17.3007H29.0673V15.5378H25.453L29.0673 11.3825V9.62015H23.0086Z" fill="#0076FF"/>
<path fill-rule="evenodd" clip-rule="evenodd" d="M50.6107 15.3945C49.6415 15.3945 48.8557 14.5285 48.8557 13.4603C48.8557 12.3921 49.6415 11.526 50.6107 11.526C51.5799 11.526 52.3657 12.3921 52.3657 13.4603C52.3657 14.5285 51.5799 15.3945 50.6107 15.3945ZM50.9185 9.4939C50.8165 9.48254 50.7137 9.4766 50.6107 9.4766C49.7947 9.4766 49.0443 9.77825 48.4392 10.281V6.84036H46.463V17.3007H48.4392V16.6395C49.0443 17.1423 49.7947 17.444 50.6107 17.444C50.7161 17.444 50.8211 17.4377 50.9253 17.4264C52.7738 17.2504 54.2252 15.5435 54.2252 13.4603C54.2252 11.3749 52.7704 9.66635 50.9185 9.4939Z" fill="#0076FF"/>
<path fill-rule="evenodd" clip-rule="evenodd" d="M39.2409 9.62006V13.4602C39.2409 14.4576 38.5073 15.2658 37.6026 15.2658C36.6979 15.2658 35.9643 14.4576 35.9643 13.4602V9.62006H33.9881V13.4602C33.9881 15.6605 35.6065 17.4439 37.6026 17.4439C39.5989 17.4439 41.2171 15.6605 41.2171 13.4602V9.62006H39.2409Z" fill="#0076FF"/>
<path fill-rule="evenodd" clip-rule="evenodd" d="M63.9176 9.62006V13.4602C63.9176 14.4576 63.184 15.2658 62.2793 15.2658C61.3746 15.2658 60.641 14.4576 60.641 13.4602V9.62006H58.6648V13.4602C58.6648 15.6605 60.2832 17.4439 62.2793 17.4439C64.2756 17.4439 65.8938 15.6605 65.8938 13.4602V9.62006H63.9176Z" fill="#0076FF"/>
<mask id="mask0_2_23" style="mask-type:alpha" maskUnits="userSpaceOnUse" x="70" y="6" width="5" height="12">
<path d="M74.8321 6.84036H70.8797V17.3006H74.8321V6.84036Z" fill="white"/>
</mask>
<g mask="url(#mask0_2_23)">
<path fill-rule="evenodd" clip-rule="evenodd" d="M72.8559 6.83966V9.61942H70.8797V11.382H72.8559V17.3H74.8321V6.83966H72.8559Z" fill="#0076FF"/>
</g>
<path d="M77.2491 11.5705C77.7909 11.5705 78.2301 11.0864 78.2301 10.4893C78.2301 9.89218 77.7909 9.40811 77.2491 9.40811C76.7073 9.40811 76.2681 9.89218 76.2681 10.4893C76.2681 11.0864 76.7073 11.5705 77.2491 11.5705Z" fill="#0076FF"/>
<path fill-rule="evenodd" clip-rule="evenodd" d="M17.9578 7.24787L9.15349 23.3595L0.128218 17.8539L4.59411 9.68231L9.28131 12.5404L17.9578 7.24787ZM14.2254 15.5567L18.2136 17.9889L10.2364 22.8551L14.2254 15.5567ZM0 6.8789L3.98823 9.31335L0 16.6113V6.8789ZM9.28131 0.790497L18.2135 6.23897L9.28131 11.6874L0.400283 6.27061L0.349522 6.23897L9.28131 0.790497Z" fill="#0076FF"/>
</svg>
